<?xml version="1.0" encoding="UTF-8"?>
<svg width="526px" height="150px" viewBox="0 0 526 340" version="1.1" xmlns="http://www.w3.org/2000/svg" xmlns:xlink="http://www.w3.org/1999/xlink">
    <!-- Generator: Sketch 46.2 (44496) - http://www.bohemiancoding.com/sketch -->
    <title>Artboard</title>
    <desc>Created with Sketch.</desc>
    <defs>
        <rect id="path-1" x="0" y="0" width="498" height="164" rx="20"></rect>
        <text id="text-3" font-family="AmericanTypewriter-Semibold, American Typewriter" font-size="15" font-weight="500" fill="#545454">
            <tspan x="405" y="148">Air-fi </tspan>
            <tspan x="445.59" y="148" font-family="AmericanTypewriter, American Typewriter" font-size="13" font-weight="normal">v1.0</tspan>
        </text>
        <filter x="-2.2%" y="-2.8%" width="102.9%" height="111.1%" filterUnits="objectBoundingBox" id="filter-4">
            <feOffset dx="0" dy="1" in="SourceAlpha" result="shadowOffsetOuter1"></feOffset>
            <feColorMatrix values="0 0 0 0 1   0 0 0 0 1   0 0 0 0 1  0 0 0 1 0" type="matrix" in="shadowOffsetOuter1"></feColorMatrix>
        </filter>
    </defs>
    <g id="Page-1" stroke="none" stroke-width="1" fill="none" fill-rule="evenodd">
        <g id="Artboard">
            <g id="Group-2" transform="translate(14.000000, 74.000000)">
                <mask id="mask-2" fill="white">
                    <use xlink:href="#path-1"></use>
                </mask>
                <use id="Mask" fill="#E1E2E3" xlink:href="#path-1"></use>
                <g mask="url(#mask-2)">
                    <g transform="translate(2.000000, 4.000000)">
                        <rect id="Rectangle" stroke="none" fill="#E1E2E3" fill-rule="evenodd" x="1" y="0" width="492" height="156" rx="18"></rect>
                        <rect id="Rectangle-Copy" stroke="none" fill="#D0D2D3" fill-rule="evenodd" x="1" y="0" width="480" height="156" rx="18"></rect>
                        <rect id="Rectangle-2" stroke="none" fill="#F1F1F2" fill-rule="evenodd" x="24" y="108" width="446" height="30"></rect>
                        <rect id="Rectangle-3" stroke="none" fill="#B2B2B8" fill-rule="evenodd" x="15" y="100" width="11" height="53"></rect>
                        <path d="M467.003906,102 L28.3515625,102 L28.3515625,152.837266 L22.3515625,152.837266 L22.3515625,102 L0.125,102 L0.125,96 L494.048401,96 L494.048401,102 L473.003906,102 L473.003906,151.880818 L467.003906,151.880818 L467.003906,102 Z" id="Combined-Shape" stroke="none" fill="#38344A" fill-rule="evenodd"></path>
                        <path d="M25.7890625,137.5 L99.6446504,137.5" id="Path-6" stroke="#38344A" stroke-width="5" fill="none" stroke-linecap="round"></path>
                        <path d="M111.566406,137.5 L130.565446,137.5" id="Path-7" stroke="#38344A" stroke-width="5" fill="none" stroke-linecap="round"></path>
                        <path d="M141.945312,137.5 L176.74228,137.5" id="Path-8" stroke="#38344A" stroke-width="5" fill="none" stroke-linecap="round"></path>
                        <path d="M186.777344,137.5 L468.315362,137.5" id="Path-9" stroke="#38344A" stroke-width="5" fill="none" stroke-linecap="round"></path>
                    </g>
                </g>
                <path d="M461.242187,36.4960938 L461.242187,-12.4179688 C459.651042,-16.8984375 456.686198,-19.3990885 452.347656,-19.9199219 C448.009115,-20.4407552 305.63151,-20.5266927 25.2148437,-20.1777344 C19.9518229,-20.3365885 16.8066406,-17.75 15.7792969,-12.4179688 C14.7519531,-7.0859375 14.7519531,22.2467448 15.7792969,75.5800781 C18.8183594,85.3535156 23.5963542,90.0553385 30.1132812,89.6855469 C36.6302083,89.3157552 175.900114,89.3157552 447.922998,89.6855469 C456.802458,84.8300781 461.242187,80.1282552 461.242187,75.5800781 C461.242187,71.031901 461.242187,58.0039063 461.242187,36.4960938 Z" id="Path" fill="#B2B2B8" mask="url(#mask-2)"></path>
                <rect id="Rectangle-Copy-2" stroke="#38344A" stroke-width="9" mask="url(#mask-2)" x="3" y="4" width="492" height="156" rx="18"></rect>
            </g>
            <g id="Group" transform="translate(40.000000, 51.000000)">
                <path d="M446.242187,57.4960937 L446.242187,8.58203125 C444.651042,4.1015625 441.686198,1.60091146 437.347656,1.08007812 C433.009115,0.559244792 290.63151,0.473307292 10.2148437,0.822265625 C4.95182292,0.663411458 1.80664062,3.25 0.779296875,8.58203125 C-0.248046875,13.9140625 -0.248046875,43.2467448 0.779296875,96.5800781 C3.81835937,106.353516 8.59635417,111.055339 15.1132812,110.685547 C21.6302083,110.315755 160.900114,110.315755 432.922998,110.685547 C441.802458,105.830078 446.242187,101.128255 446.242187,96.5800781 C446.242187,92.031901 446.242187,79.0039062 446.242187,57.4960937 Z" id="Path" stroke="#38344A" stroke-width="8" fill="#F1F1F2"></path>
                <path d="M444.899414,37.5 L398.548828,37.5" id="Path-2" stroke="#38344A" stroke-width="5" stroke-linecap="round"></path>
                <path d="M444.899414,49.8333333 L398.548828,49.8333333" id="Path-2-Copy" stroke="#38344A" stroke-width="5" stroke-linecap="round"></path>
                <path d="M444.899414,62.1666667 L398.548828,62.1666667" id="Path-2-Copy-2" stroke="#38344A" stroke-width="5" stroke-linecap="round"></path>
                <path d="M444.899414,74.5 L398.548828,74.5" id="Path-2-Copy-3" stroke="#38344A" stroke-width="5" stroke-linecap="round"></path>
                <path d="M45.4185322,80 C58.9495085,80 70.6399865,69.0309764 70.6399865,55.5 C70.6399865,41.9690236 58.9495085,31 45.4185322,31 C31.8875558,31 19.5878906,41.9690236 19.5878906,55.5 C19.5878906,69.0309764 31.8875558,80 45.4185322,80 Z" id="Oval" fill="#CCCBD0"></path>
                <path d="M51.4185322,80 C64.9495085,80 76.6399865,69.0309764 76.6399865,55.5 C76.6399865,41.9690236 64.9495085,31 51.4185322,31 C37.8875558,31 25.5878906,41.9690236 25.5878906,55.5 C25.5878906,69.0309764 37.8875558,80 51.4185322,80 Z" id="Oval-Copy" stroke="#38344A" stroke-width="5.5" fill="#8DDBFA"></path>
                <path d="M49.755958,76.1759797 C61.1263908,76.1759797 70.9502047,66.9584226 70.9502047,55.5879898 C70.9502047,44.217557 61.1263908,35 49.755958,35 C38.3855251,35 28.0497953,44.217557 28.0497953,55.5879898 C28.0497953,66.9584226 38.3855251,76.1759797 49.755958,76.1759797 Z" id="Oval-Copy-2" fill="#53BDE8"></path>
                <path d="M49,68.9795834 L49,68.9795834 M49.7058824,69 C56.3332994,69 61.7058824,63.627417 61.7058824,57" id="Combined-Shape" stroke="#70D5F0" stroke-width="5" stroke-linecap="round"></path>
            </g>
            <path d="M287,247 L287,293.237529 C290.037659,303.714928 296.796417,307.741232 307.276276,305.31644 C322.996063,301.679252 321.237246,286.258174 317.275508,281.350565 C313.313769,276.442956 302.613408,276.358001 302.613408,286.703518" id="fan2" stroke="#38344A" stroke-width="7" stroke-linecap="round"></path>
            <path d="M262.5,247 L262.5,323" id="fan1" stroke="#38344A" stroke-width="7" stroke-linecap="round"></path>
            <path d="M206,247 L206,293.237529 C209.037659,303.714928 215.796417,307.741232 226.276276,305.31644 C241.996063,301.679252 240.237246,286.258174 236.275508,281.350565 C232.313769,276.442956 221.613408,276.358001 221.613408,286.703518" id="fan0" stroke="#38344A" stroke-width="7" stroke-linecap="round" transform="translate(222.500000, 276.500000) scale(-1, 1) translate(-222.500000, -276.500000) "></path>
            <g id="Air-fi-v1.0" fill-opacity="1" fill="#545454">
                <use filter="url(#filter-4)" xlink:href="#text-3"></use>
                <use xlink:href="#text-3"></use>
            </g>
        </g>
    </g>
</svg>